<?xml version="1.0" encoding="UTF-8"?>
<svg id="Layer_1" data-name="Layer 1" xmlns="http://www.w3.org/2000/svg" viewBox="0 0 1600 900">
  <defs>
    <style>
      .cls-1 {
        fill: #272525;
        stroke-width: 0px;
      }
    </style>
  </defs>
  <path class="cls-1" d="M1600,900H0V0h1600v900ZM139.574,322.1803v105.0989h49.0034c13.078,0,21.745-2.3641,28.2052-7.879,5.9868-5.2003,9.611-12.9205,9.611-20.9568,0-7.4056-3.1508-14.4966-8.5083-19.3808-3.6243-3.308-6.7748-4.7268-13.3938-6.4603,12.9206-3.9388,19.0662-11.5018,19.0662-23.3196,0-8.1936-3.3082-15.2846-9.7698-20.3275-6.1441-5.0415-12.7619-6.775-25.2102-6.775h-49.0037ZM164.1535,340.7731h16.8607c9.139,0,11.0298.3161,13.7084,2.8361,2.3628,1.8921,3.6243,5.0429,3.6243,8.3524,0,3.7815-1.7335,7.4056-4.5694,9.4537-2.3642,1.7335-5.0428,2.3628-11.0298,2.3628h-18.5942v-23.0049ZM164.1535,382.5294h20.0116c10.5579,0,16.5446,4.5695,16.5446,12.4485,0,4.2534-2.2054,8.5083-5.5148,10.7137-2.6789,1.5761-5.6721,2.2067-12.1326,2.2067h-18.9088v-25.369ZM271.465,363.778v18.4369h9.6125c8.1936,0,11.8179.6293,14.4965,2.3628,3.3082,2.3641,5.356,6.6176,5.356,11.1872,0,8.5097-6.4602,14.182-16.0712,14.182-10.3991,0-16.23-5.0429-18.9088-16.23l-22.3743,3.1521c2.0481,10.0844,4.884,15.4406,11.5018,21.4288,7.879,7.4056,17.018,10.5564,30.2533,10.5564,24.7383,0,40.6536-12.4471,40.6536-31.6706,0-7.4056-2.6789-13.7086-7.879-18.4354-3.4669-3.1521-6.6175-4.7268-13.2353-6.4603,11.9752-4.2549,17.962-11.9751,17.962-23.4784,0-16.7019-15.1258-28.2052-37.3428-28.2052-12.134,0-21.4304,3.6241-29.1506,10.8725-5.2001,5.0429-7.4056,9.139-9.6125,17.1754l21.745,3.4668c2.8362-9.4551,7.4056-13.3939,16.0726-13.3939,8.1936,0,14.1804,5.3576,14.1804,12.7632,0,2.9934-1.1027,5.8296-3.3096,8.1936-2.6774,2.8361-6.4602,4.0961-12.7619,4.0961h-11.1886.0009ZM490.9908,342.1918v-20.0114h-75.159v105.0989h75.159v-20.7995h-50.1058v-23.0049h39.3924v-19.6968h-39.3924v-21.5861h50.1058ZM595.7826,322.1803h-19.0662v54.9916c0,2.0481.1573,3.6241.472,6.9336l-35.7681-61.9252h-26.4703v105.0989h19.0647v-62.8706c0-.6307-.1573-2.2054-.3147-4.5695,0-.472,0-1.8908-.1573-3.6241l41.1256,71.0642h21.1143v-105.0989ZM708.6089,371.0263h-43.1737v19.6968h19.8528c0,5.5149-.7881,8.1936-3.3082,11.6604-3.1523,4.2534-8.0363,6.4603-13.7084,6.4603-13.8657,0-21.4304-11.8178-21.4304-33.248,0-22.5315,7.2482-34.98,20.3277-34.98,6.4602,0,11.9752,3.1521,14.9685,8.6671,1.5761,2.9934,2.3628,5.1988,3.1508,10.5564l23.3209-3.1507c-3.7816-23.1637-18.5942-36.0842-40.9682-36.0842-28.0479,0-45.8526,21.4302-45.8526,55.4649,0,32.3013,16.8593,52.7847,43.331,52.7847,12.4487,0,19.6969-3.4654,28.6786-13.7071,2.0481,5.6722,2.3628,6.6176,3.6243,12.1324h11.1872v-56.2529h-.0003ZM761.8727,322.1803h-24.5795v105.0989h24.5795v-105.0989ZM872.9627,322.1803h-19.0662v54.9916c0,2.0481.1573,3.6241.472,6.9336l-35.7681-61.9252h-26.4703v105.0989h19.0647v-62.8706c0-.6307-.1573-2.2054-.3147-4.5695,0-.472,0-1.8908-.1573-3.6241l41.1256,71.0642h21.1143v-105.0989ZM978.5408,342.1918v-20.0114h-75.159v105.0989h75.159v-20.7995h-50.1058v-23.0049h39.3924v-19.6968h-39.3924v-21.5861h50.1058ZM1077.6586,342.1918v-20.0114h-75.1605v105.0989h75.1605v-20.7995h-50.1073v-23.0049h39.3924v-19.6968h-39.3924v-21.5861h50.1073ZM1126.3531,385.6802h17.6488l16.0712,41.599h27.2598l-19.3808-46.3258c5.3575-2.5214,7.7202-4.0961,10.2418-6.775,5.0428-5.3576,7.879-12.9205,7.879-20.4848,0-9.4537-4.2547-18.9074-11.0298-24.4223-6.3028-5.2003-13.7084-7.0909-27.2598-7.0909h-46.1672v105.0989h24.7368v-41.599h.0003ZM1126.3531,340.9319h14.4965c9.9271,0,11.8179.3147,14.9699,2.6774,2.9935,2.3641,4.884,6.303,4.884,10.4005,0,4.5695-2.5215,9.2964-6.1455,11.5018-2.9935,1.8908-4.884,2.2067-13.078,2.2067h-15.1272v-26.7864h.0003ZM1238.234,322.1803h-24.5795v105.0989h24.5795v-105.0989ZM1349.3243,322.1803h-19.0662v54.9916c0,2.0481.1573,3.6241.472,6.9336l-35.7681-61.9252h-26.4703v105.0989h19.0647v-62.8706c0-.6307-.1573-2.2054-.3147-4.5695,0-.472,0-1.8908-.1573-3.6241l41.1256,71.0642h21.1143v-105.0989ZM1462.1506,371.0263h-43.1737v19.6968h19.8528c0,5.5149-.7881,8.1936-3.3082,11.6604-3.1523,4.2534-8.0363,6.4603-13.7084,6.4603-13.8657,0-21.4304-11.8178-21.4304-33.248,0-22.5315,7.2482-34.98,20.3277-34.98,6.4602,0,11.9752,3.1521,14.9685,8.6671,1.5761,2.9934,2.3628,5.1988,3.1508,10.5564l23.3209-3.1507c-3.7816-23.1637-18.5942-36.0842-40.9682-36.0842-28.0479,0-45.8526,21.4302-45.8526,55.4649,0,32.3013,16.8593,52.7847,43.331,52.7847,12.4487,0,19.6969-3.4654,28.6786-13.7071,2.0481,5.6722,2.3628,6.6176,3.6243,12.1324h11.1872v-56.2529h-.0003ZM163.8259,574.3525v-72.8049h23.4105v-8.9486h-56.9948v8.9486h23.4105v72.8049h10.1738ZM259.7929,574.3525v-81.7535h-10.1723v33.8298h-37.9966v-33.8298h-10.1723v81.7535h10.1723v-38.9766h37.9966v38.9766h10.1723ZM336.5166,565.4054h-42.6542v-29.416h32.9708v-8.3351h-32.9708v-26.1067h41.5514v-8.9486h-51.724v81.7535h52.8265v-8.9471h.0003ZM476.8638,574.3525v-81.7535h-14.9526l-24.1464,65.3299-24.5132-65.3299h-15.1981v81.7535h8.7016v-71.3342l26.7198,71.3342h6.9855l26.4761-71.3342v71.3342h9.9274ZM555.5459,574.3525l-26.5974-81.7535h-11.7658l-26.4746,81.7535h8.5789l7.2324-23.9012h30.2735l8.2124,23.9012h10.5406ZM534.5875,542.7296h-25.1267l12.6247-39.2218,12.502,39.2221v-.0003ZM562.5285,552.5355c2.9414,7.7217,5.1483,11.2765,9.4378,15.3209,6.1282,5.5162,13.6061,8.0899,23.9012,8.0899,18.385,0,30.2749-9.6831,30.2749-24.636,0-11.6447-7.1097-19.2437-21.0823-22.553l-15.1981-3.6761c-9.5606-2.3296-13.3606-5.8845-13.3606-12.3792,0-7.7231,7.3551-13.3606,17.2823-13.3606,5.639,0,11.154,1.9614,15.1996,5.5162,2.6962,2.3279,4.0441,4.5348,5.1468,8.8244l9.1924-2.5734c-4.5348-13.2379-14.5847-20.1023-29.1708-20.1023-16.5461,0-27.5773,8.9486-27.5773,22.3078,0,6.3737,2.3279,11.7672,6.6175,15.8116,3.1869,2.8186,6.7417,4.5348,13.4834,6.1282l16.3006,4.1683c7.9672,1.96,12.502,6.6175,12.502,12.8685,0,9.3151-7.3537,14.9541-19.6102,14.9541-12.502,0-20.3464-5.3938-24.1464-16.6702l-9.1924,1.9614-.0003-.0003ZM667.3214,574.3525v-72.8049h23.4105v-8.9486h-56.9948v8.9486h23.4105v72.8049h10.1738ZM757.7739,565.4054h-42.6542v-29.416h32.9708v-8.3351h-32.9708v-26.1067h41.5514v-8.9486h-51.724v81.7535h52.8265v-8.9471h.0003ZM834.3745,574.3525l-16.0568-37.8739c4.7803-1.7162,7.1097-3.0641,9.5606-5.883,3.4324-3.7989,5.639-9.6831,5.639-15.0754,0-13.6061-10.542-22.9212-25.8626-22.9212h-32.1121v81.7535h9.5592v-35.4218h23.4119l15.0754,35.4218h10.7858-.0003ZM785.1014,530.5956v-29.048h22.553c9.6831,0,15.6888,5.2696,15.6888,13.7274,0,4.1668-1.4707,7.9672-4.1668,10.7858-3.0641,3.1869-6.8644,4.5348-12.7472,4.5348h-21.3278ZM844.5425,552.5355c2.9414,7.7217,5.1483,11.2765,9.4378,15.3209,6.1282,5.5162,13.6061,8.0899,23.9012,8.0899,18.385,0,30.2749-9.6831,30.2749-24.636,0-11.6447-7.1097-19.2437-21.0823-22.553l-15.1981-3.6761c-9.5606-2.3296-13.3606-5.8845-13.3606-12.3792,0-7.7231,7.3551-13.3606,17.2823-13.3606,5.639,0,11.154,1.9614,15.1996,5.5162,2.6962,2.3279,4.0441,4.5348,5.1468,8.8244l9.1924-2.5734c-4.5348-13.2379-14.5847-20.1023-29.1708-20.1023-16.5461,0-27.5773,8.9486-27.5773,22.3078,0,6.3737,2.3279,11.7672,6.6175,15.8116,3.1869,2.8186,6.7417,4.5348,13.4834,6.1282l16.3006,4.1683c7.9672,1.96,12.502,6.6175,12.502,12.8685,0,9.3151-7.3537,14.9541-19.6102,14.9541-12.502,0-20.3464-5.3938-24.1464-16.6702l-9.1924,1.9614-.0003-.0003ZM998.9854,491.0056c-19.8557,0-33.5828,17.4047-33.5828,42.6542,0,12.7472,3.5534,23.6557,10.0496,31.7456,5.7617,6.9855,13.6061,10.5406,23.2878,10.5406,9.5606,0,16.9157-3.3096,22.7985-10.2951,6.9855-8.2124,10.9085-19.9784,10.9085-32.2363,0-25.4932-13.3606-42.4089-33.4618-42.4089h.0003ZM998.8626,499.3407c14.3406,0,22.9212,12.7472,22.9212,33.9511,0,20.7143-9.0699,34.3205-22.7985,34.3205-13.8499,0-22.9198-13.4834-22.9198-33.8298,0-20.8371,8.9471-34.4418,22.797-34.4418ZM1061.3682,574.3525v-38.7311h33.0936v-8.2124h-33.0936v-25.8612h39.8353v-8.9486h-50.0079v81.7535h10.1723l.0003-.0003ZM1208.8253,565.4054h-37.7511v-72.8064h-10.4178v81.7535h48.1689v-8.9471ZM1234.3156,574.3525v-81.7535h-10.1723v81.7535h10.1723ZM1318.7635,533.169h-30.6429v8.5803h20.1023c.1227,1.7162.1227,3.1869.1227,4.4121,0,12.9927-8.0899,21.5719-20.1023,21.5719-7.7217,0-14.8299-4.0441-18.6302-10.5406-3.3096-5.883-5.2696-14.2181-5.2696-23.165,0-9.0699,1.96-17.6502,5.3923-23.7785,3.5548-6.6189,10.1738-10.5406,17.8954-10.5406,6.0055,0,11.5206,2.3279,15.3209,6.3737,2.5734,2.8186,3.8003,5.2696,5.271,10.9085l9.6816-2.3296c-1.96-6.9855-3.6761-10.2951-7.1082-14.2181-5.5148-6.251-12.8699-9.4378-22.185-9.4378-21.2036,0-35.4218,17.4047-35.4218,43.3901,0,12.6247,3.5534,23.2878,10.4178,31.2549,6.1282,6.9855,13.6047,10.4178,23.2878,10.4178,10.2965,0,16.9143-3.1869,22.7985-10.9085l2.6962,10.2965h6.3737v-42.2874l-.0003.0003ZM1398.4285,574.3525v-81.7535h-10.1723v33.8298h-37.9966v-33.8298h-10.1723v81.7535h10.1723v-38.9766h37.9966v38.9766h10.1723ZM1446.3479,574.3525v-72.8049h23.4105v-8.9486h-56.9948v8.9486h23.4105v72.8049h10.1738Z"/>
</svg>